<?xml version="1.0" encoding="utf-8"?>
<!-- Generator: Adobe Illustrator 23.0.1, SVG Export Plug-In . SVG Version: 6.00 Build 0)  -->
<svg version="1.1" id="Layer_1" xmlns="http://www.w3.org/2000/svg" xmlns:xlink="http://www.w3.org/1999/xlink" x="0px" y="0px"
	 viewBox="0 0 182.4 220.5" style="enable-background:new 0 0 182.4 220.5;" xml:space="preserve">
<style type="text/css">
	.st0{opacity:0.7;fill:#ECBF68;enable-background:new    ;}
	.st1{fill:#ECBF68;}
</style>
<title>logo</title>
<path class="st0" d="M1.8,1.7h104.7c19.3,0,34.8,4.4,46.5,13.3s17.5,22.2,17.5,40.1c0,10.9-2.7,20.2-8,27.9
	c-5.3,7.7-12.9,13.7-22.8,18v0.6c13.3,2.8,23.3,9.1,30.2,18.9c6.8,9.8,10.3,22,10.3,36.7c0.1,8.1-1.5,16.2-4.5,23.7
	c-3.1,7.4-7.9,13.9-14.2,19c-6.4,5.3-14.7,9.6-24.7,12.7c-10.1,3.1-22,4.7-35.9,4.7h-99L1.8,1.7z M39.5,91.9H101
	c9.1,0,16.6-2.6,22.6-7.7c6-5.1,9.1-12.5,9.1-22.2c0-10.9-2.7-18.5-8.1-22.9c-5.4-4.4-13.3-6.6-23.5-6.6H39.5L39.5,91.9z
	 M39.5,186.3h66.7c11.5,0,20.4-3,26.7-8.9c6.3-5.9,9.5-14.3,9.5-25.2c0-10.7-3.2-18.9-9.5-24.6s-15.2-8.6-26.7-8.6H39.5L39.5,186.3z
	"/>
<polygon class="st1" points="39.5,186.3 39.5,1.7 1.8,1.7 1.8,186.3 1.8,217.1 102.6,217.1 102.6,186.3 "/>
</svg>
