<?xml version="1.0" encoding="utf-8"?>
<!-- Generator: Adobe Illustrator 23.0.1, SVG Export Plug-In . SVG Version: 6.00 Build 0)  -->
<svg version="1.1" id="Layer_1" xmlns="http://www.w3.org/2000/svg" xmlns:xlink="http://www.w3.org/1999/xlink" x="0px" y="0px"
	 viewBox="0 0 183.1 219.89" style="enable-background:new 0 0 183.1 219.89;" xml:space="preserve">
<style type="text/css">
	.st0{clip-path:url(#SVGID_2_);}
	.st1{opacity:0.2;clip-path:url(#SVGID_4_);}
	.st2{clip-path:url(#SVGID_6_);fill:#1071B9;}
	.st3{clip-path:url(#SVGID_6_);fill:#FFFFFF;}
	.st4{fill:none;stroke:#000000;stroke-width:11.8124;stroke-miterlimit:10;}
	.st5{fill:#FFFFFF;}
	.st6{opacity:0.7;}
	.st7{fill:none;stroke:#FFFFFF;stroke-width:1.2728;stroke-miterlimit:10;}
	.st8{fill:none;stroke:#FFFFFF;stroke-width:1.1081;stroke-miterlimit:10;}
	.st9{fill:#5B8F9D;}
	.st10{opacity:0.7;fill:#496062;}
	.st11{fill:#C7492F;}
	.st12{fill:#4068B1;}
	.st13{fill:#5F2020;}
	.st14{fill:#38A2DB;}
	.st15{fill:#8D1A1C;}
	.st16{fill:#246A9F;}
	.st17{fill:#C63E35;}
	.st18{fill:#66809E;}
	.st19{fill:#AF2025;}
	.st20{fill:#245DAA;}
	.st21{fill:#F9D054;}
	.st22{fill:#D9A92C;}
	.st23{fill:#B51F31;}
	.st24{fill:#496062;}
	.st25{fill:#C57029;}
	.st26{fill:#C22731;}
	.st27{fill:#566A7B;}
	.st28{opacity:0.7;fill:#C7492F;}
	.st29{opacity:0.7;fill:#D9A92C;}
	.st30{opacity:0.7;fill:#851719;}
	.st31{opacity:0.7;fill:#DD9B40;}
	.st32{fill:#DD9B40;}
	.st33{fill:#89ACB6;}
	.st34{fill:#DD8427;}
	.st35{fill:#851719;}
	.st36{opacity:0.7;fill:#5B8F9D;}
	.st37{opacity:0.7;fill:#DD8427;}
	.st38{opacity:0.7;fill:#89ACB6;}
	.st39{opacity:0.7;fill:#647C6C;}
	.st40{opacity:0.7;fill:#ECBF68;}
	.st41{fill:#ECBF68;}
	.st42{fill:#4A5667;}
	.st43{fill:#0C2E35;}
	.st44{fill:#647C6C;}
	.st45{opacity:0.7;fill:#0C2E35;}
	.st46{opacity:0.7;fill:#4A5667;}
	.st47{opacity:0.7;fill:#EB6D62;}
	.st48{fill:#EB6D62;}
	.st49{fill:#98A3B5;}
	.st50{opacity:0.7;fill:#98A3B5;}
	.st51{opacity:0.6;fill:#F8B34B;}
	.st52{opacity:0.8;fill:#F8B34B;}
	.st53{fill:#F8B34B;}
	.st54{fill:#57585C;}
	.st55{opacity:0.7;fill:#CF453A;}
	.st56{opacity:0.9;fill:#CF453A;}
	.st57{fill:#CF453A;}
	.st58{opacity:0.7;fill:#404EA1;}
	.st59{fill:#404EA1;}
	.st60{opacity:0.7;fill:#FBA92D;}
	.st61{opacity:0.9;fill:#FBA92D;}
	.st62{fill:#FBA92D;}
	.st63{opacity:0.6;fill:#108357;}
	.st64{opacity:0.9;fill:#108357;}
	.st65{fill:#108357;}
	.st66{opacity:0.6;fill:#851719;}
	.st67{opacity:0.9;fill:#851719;}
	.st68{opacity:0.7;fill:#1C3461;}
	.st69{opacity:0.9;fill:#1C3461;}
	.st70{fill:#1C3461;}
	.st71{opacity:0.7;fill:#9B3C3A;}
	.st72{fill:#1B1F36;}
	.st73{fill:#9B3C3A;}
	.st74{fill:#EEAB4D;}
	.st75{fill:none;stroke:#EEAB4D;stroke-width:9;stroke-miterlimit:10;}
	.st76{opacity:0.7;fill:#EF3E23;}
	.st77{fill:#EF3E23;}
	.st78{fill:#4156A1;}
	.st79{fill:none;stroke:#4156A1;stroke-width:9;stroke-miterlimit:10;}
	.st80{fill:none;stroke:#98A3B5;stroke-width:9;stroke-miterlimit:10;}
	.st81{opacity:0.7;fill:#F8B34B;}
	.st82{fill:none;stroke:#57585C;stroke-width:9;stroke-miterlimit:10;}
	.st83{fill:#647385;}
	.st84{fill:none;stroke:#1C3461;stroke-width:9;stroke-miterlimit:10;}
	.st85{opacity:0.7;fill:#C93427;}
	.st86{fill:#C93427;}
	.st87{fill:#323E99;}
	.st88{fill:#323E99;stroke:#647385;stroke-width:9;stroke-miterlimit:10;}
</style>
<path class="st81" d="M170.45,120.96c-6.84-9.75-16.9-16.04-30.17-18.86v-0.6c9.85-4.22,17.45-10.21,22.78-17.95
	c5.33-7.74,7.99-17.05,7.99-27.91c0-17.9-5.84-31.27-17.5-40.13C141.88,6.67,126.4,2.24,107.09,2.24H2.4v215.41h98.96
	c13.88,0,25.84-1.56,35.9-4.68c10.05-3.12,18.3-7.34,24.74-12.67c6.43-5.33,11.16-11.66,14.18-19.01
	c3.02-7.34,4.53-15.24,4.53-23.68C180.7,142.94,177.28,130.72,170.45,120.96z M40.11,33.01h61.55c10.26,0,18.1,2.22,23.53,6.64
	c5.43,4.43,8.15,12.07,8.15,22.93c0,9.65-3.02,17.05-9.05,22.17c-6.03,5.13-13.58,7.69-22.63,7.69H40.11V33.01z M133.49,177.98
	c-6.34,5.93-15.24,8.9-26.7,8.9H40.11V119.6h66.67c11.47,0,20.36,2.87,26.7,8.6c6.33,5.73,9.5,13.93,9.5,24.59
	C142.99,163.65,139.82,172.05,133.49,177.98z"/>
<polygon class="st53" points="40.11,186.88 40.11,2.24 2.4,2.24 2.4,186.88 2.4,217.65 103.26,217.65 103.25,186.88 "/>
</svg>
