<svg id="Layer_1" data-name="Layer 1" xmlns="http://www.w3.org/2000/svg" viewBox="0 0 633.13 670.23"><defs><style>.cls-1{fill:#d5b2d4;}.cls-1,.cls-10,.cls-11,.cls-12,.cls-13,.cls-14,.cls-15,.cls-16,.cls-17,.cls-18,.cls-19,.cls-2,.cls-20,.cls-3,.cls-4,.cls-5,.cls-6,.cls-7,.cls-8,.cls-9{stroke:#fff;stroke-miterlimit:10;}.cls-1,.cls-10,.cls-12,.cls-14,.cls-16,.cls-18,.cls-2,.cls-20,.cls-4,.cls-5,.cls-7,.cls-8,.cls-9{opacity:0.53;}.cls-2{fill:#97adc6;}.cls-3{fill:#61af91;}.cls-11,.cls-17,.cls-3{opacity:0.86;}.cls-4{fill:#ddac6f;}.cls-5{fill:#d6b4d5;}.cls-6{fill:#97acc6;}.cls-13,.cls-19,.cls-6{opacity:0.74;}.cls-15,.cls-7{fill:#b05fa5;}.cls-8{fill:#d2d3b2;}.cls-9{fill:#859372;}.cls-10{fill:#77b8b7;}.cls-11,.cls-20{fill:#c998c5;}.cls-12{fill:#b0c48c;}.cls-13{fill:#c696af;}.cls-14{fill:#9797c5;}.cls-15{opacity:0.36;}.cls-16{fill:#a1c697;}.cls-17{fill:#b2cc92;}.cls-18{fill:#c66f61;}.cls-19{fill:#d2c8b2;}.cls-21{font-size:45px;font-family:NiveauGroteskRegular-SmallCaps, Niveau Grotesk;letter-spacing:0.36em;}.cls-21,.cls-27{fill:#662d91;}.cls-22{letter-spacing:0.36em;}.cls-23{letter-spacing:0.35em;}.cls-24{letter-spacing:0.35em;}.cls-25{letter-spacing:0.33em;}.cls-26{letter-spacing:0.29em;}.cls-27{font-size:90px;font-family:Optima-Regular, Optima;}.cls-28{letter-spacing:-0.04em;}.cls-29{letter-spacing:-0.07em;}</style></defs><title>color</title><path class="cls-1" d="M294.19,77.7l87,59.67-57,3.33Z"/><path class="cls-2" d="M381.11,140.7l-55.26,4q14.41,210.08,28.84,420.17l15,15.66,19,.67Z"/><path class="cls-3" d="M289.85,76.7l32.34,68.5-37.5,74.5q-18.79-38.07-37.58-76.13Q268.47,110.14,289.85,76.7Z"/><path class="cls-4" d="M323.1,150.62q-18.28,37-36.58,74.08L289,495.87l63.54,66.5Q337.8,356.5,323.1,150.62Z"/><path class="cls-5" d="M245.69,148.7l36.81,76.5,3,267.5q-21.4-22.5-42.8-45Z"/><path class="cls-6" d="M103.19,174.2l-7.5,84.25,39.75,15.75,39.75-16.75,3.75-33.25Z"/><polygon class="cls-7" points="181.69 225.7 240.19 322.7 240.19 368.7 178.69 257.2 181.69 225.7"/><path class="cls-5" d="M176.19,261.7,239.44,374q.24,22.49.5,45L138.69,276.7Z"/><path class="cls-8" d="M96.19,261.7l62.25,128.5,34.5,4,46.27,49.49.23-19.49q-51.63-73-103.25-146Z"/><path class="cls-9" d="M126.69,390.7l62.75,7q.12,10.88.25,21.75l-38-6Z"/><path class="cls-5" d="M123.94,393.2l26,23.25q5.12,19.24,10.25,38.5l-20,12.5Q132.06,430.33,123.94,393.2Z"/><polygon class="cls-1" points="153.19 417.2 162.69 454.2 199.44 463.7 189.44 421.95 153.19 417.2"/><path class="cls-10" d="M191.94,399,365.52,581.2H322.85l-119.66-116q-5.5-22.87-11-45.75Q192.06,409.21,191.94,399Z"/><path class="cls-11" d="M141.12,469.7,161.19,457l38.5,9.92,117.75,113.5-71.25.25Z"/><path class="cls-5" d="M28.19,478.7l57.66-5.33,17.59,40.83-62,5.25Q34.81,499.08,28.19,478.7Z"/><path class="cls-12" d="M88.19,473.7Q97,493.86,105.85,514l91.34,19.67q-14.76-16.25-29.5-32.5Z"/><path class="cls-13" d="M43.52,521l60.33-4.66,98,21.66,41.34,43-62.67.17Z"/><polygon class="cls-14" points="426.19 195.7 477.52 167.37 486.85 227.03 461.85 254.7 428.19 239.03 426.19 195.7"/><path class="cls-15" d="M423.35,196.87q-18.59,34.74-37.16,69.5.4,29,.83,58,19.25-42.18,38.5-84.34Q424.44,218.45,423.35,196.87Z"/><path class="cls-1" d="M387,330.2q20.33-43.81,40.64-87.62l31.86,14.79q-35.67,65.07-71.33,130.16Z"/><path class="cls-16" d="M488,229.2l-26,29.5L388.69,391.87l1.16,94.5Z"/><polygon class="cls-1" points="505.18 360.37 553.52 347.7 520.18 378.03 505.18 360.37"/><path class="cls-17" d="M556.19,347.87l-37,34.83q-7.9,16-15.83,32l49.5-11Q554.52,375.79,556.19,347.87Z"/><path class="cls-4" d="M503.19,361.87l14,18-16,33.16-111,97.84V491.7l16.5-44.33Z"/><path class="cls-5" d="M552.19,406.37,501.85,417.7,390.85,514q-.08,10.26-.16,20.5Z"/><polygon class="cls-18" points="391.19 538.37 391.19 557.37 493.52 505.37 493.52 476.37 391.19 538.37"/><path class="cls-19" d="M390.85,560.53l.33,20.67h22L521.85,524l-27.16-16.66Z"/><path class="cls-20" d="M496,475.7,543.18,473,524,522.37,496,505.7Z"/><text class="cls-21" transform="translate(72.94 391.68)">G<tspan class="cls-22" x="49.64" y="0">r</tspan><tspan class="cls-23" x="87.07" y="0">o</tspan><tspan class="cls-24" x="131.31" y="0">w</tspan><tspan class="cls-25" x="181.93" y="0"> </tspan><tspan class="cls-26" x="207.31" y="0">Y</tspan><tspan x="245.7" y="0">our Own</tspan></text><text class="cls-27" transform="translate(133.32 461.64)">C<tspan class="cls-28" x="60.03" y="0">R</tspan><tspan x="111.69" y="0">YS</tspan><tspan class="cls-29" x="211.68" y="0">T</tspan><tspan x="255.06" y="0">ALS</tspan></text></svg>