<svg id="Layer_1" data-name="Layer 1" xmlns="http://www.w3.org/2000/svg" viewBox="0 0 633.13 670.23"><defs><style>.cls-1{fill:#6d6e71;stroke:#fff;stroke-miterlimit:10;opacity:0.5;}.cls-2{font-size:45px;font-family:NiveauGroteskRegular-SmallCaps, Niveau Grotesk;letter-spacing:0.36em;}.cls-2,.cls-8{fill:#58595b;}.cls-3{letter-spacing:0.36em;}.cls-4{letter-spacing:0.35em;}.cls-5{letter-spacing:0.35em;}.cls-6{letter-spacing:0.33em;}.cls-7{letter-spacing:0.29em;}.cls-8{font-size:90px;font-family:Optima-Regular, Optima;}.cls-9{letter-spacing:-0.04em;}.cls-10{letter-spacing:-0.07em;}</style></defs><title>logo</title><path class="cls-1" d="M295.44,80.08l87,59.67-57,3.33Z"/><path class="cls-1" d="M382.37,143.08l-55.26,4,28.83,420.17,15,15.66,19,.67Z"/><path class="cls-1" d="M291.11,79.08q16.17,34.24,32.33,68.5l-37.5,74.5Q267.16,184,248.36,146Z"/><path class="cls-1" d="M324.36,153q-18.28,37-36.58,74.08l2.46,271.17,63.54,66.5Q339.07,358.88,324.36,153Z"/><path class="cls-1" d="M246.94,151.08l36.81,76.5,3,267.5-42.81-45Z"/><path class="cls-1" d="M104.44,176.58l-7.5,84.25,39.75,15.75,39.75-16.75,3.75-33.25Z"/><polygon class="cls-1" points="182.94 228.08 241.44 325.08 241.44 371.08 179.94 259.58 182.94 228.08"/><path class="cls-1" d="M177.44,264.08l63.25,112.28q.26,22.49.5,45L139.94,279.08Z"/><path class="cls-1" d="M97.44,264.08l62.25,128.5,34.5,4q23.15,24.75,46.28,49.49l.22-19.49q-51.62-73-103.25-146Z"/><path class="cls-1" d="M127.94,393.08l62.75,7q.13,10.88.25,21.75l-38-6Z"/><path class="cls-1" d="M125.19,395.58l26,23.25q5.13,19.25,10.25,38.5l-20,12.5Q133.32,432.71,125.19,395.58Z"/><polygon class="cls-1" points="154.44 419.58 163.94 456.58 200.69 466.08 190.69 424.33 154.44 419.58"/><path class="cls-1" d="M193.19,401.33,366.78,583.58H324.11l-119.67-116q-5.49-22.87-11-45.75Q193.32,411.59,193.19,401.33Z"/><path class="cls-1" d="M142.38,472.08l20.06-12.67,38.5,9.92,117.75,113.5-71.25.25Z"/><path class="cls-1" d="M29.44,481.08l57.67-5.33,17.58,40.83-62,5.25Q36.08,501.46,29.44,481.08Z"/><path class="cls-1" d="M89.44,476.08l17.67,40.33,91.33,19.67q-14.74-16.25-29.5-32.5Z"/><path class="cls-1" d="M44.78,523.41l60.33-4.66,98,21.66,41.33,43-62.66.17Z"/><polygon class="cls-1" points="427.44 198.08 478.78 169.75 488.11 229.41 463.11 257.08 429.44 241.41 427.44 198.08"/><path class="cls-1" d="M424.61,199.25l-37.17,69.5.84,58q19.25-42.18,38.5-84.34Q425.7,220.83,424.61,199.25Z"/><path class="cls-1" d="M388.28,332.58q20.31-43.81,40.64-87.62l31.86,14.79L389.44,389.91Z"/><path class="cls-1" d="M489.28,231.58l-26,29.5L389.94,394.25l1.17,94.5Z"/><polygon class="cls-1" points="506.44 362.75 554.77 350.08 521.44 380.41 506.44 362.75"/><path class="cls-1" d="M557.44,350.25l-37,34.83q-7.91,16-15.83,32l49.5-11Z"/><path class="cls-1" d="M504.44,364.25l14,18-16,33.16-111,97.84V494.08l16.5-44.33Z"/><path class="cls-1" d="M553.44,408.75l-50.33,11.33-111,96.33q-.08,10.26-.17,20.5Z"/><polygon class="cls-1" points="392.44 540.75 392.44 559.75 494.78 507.75 494.78 478.75 392.44 540.75"/><path class="cls-1" d="M392.11,562.91l.33,20.67h22l108.67-57.17-27.17-16.66Z"/><path class="cls-1" d="M497.28,478.08l47.16-2.67-19.16,49.34-28-16.67Z"/><text class="cls-2" transform="translate(74.2 394.06)">G<tspan class="cls-3" x="49.64" y="0">r</tspan><tspan class="cls-4" x="87.07" y="0">o</tspan><tspan class="cls-5" x="131.31" y="0">w</tspan><tspan class="cls-6" x="181.93" y="0"> </tspan><tspan class="cls-7" x="207.31" y="0">Y</tspan><tspan x="245.7" y="0">our Own</tspan></text><text class="cls-8" transform="translate(134.58 464.02)">C<tspan class="cls-9" x="60.03" y="0">R</tspan><tspan x="111.69" y="0">YS</tspan><tspan class="cls-10" x="211.68" y="0">T</tspan><tspan x="255.06" y="0">ALS</tspan></text></svg>