<?xml version="1.0" encoding="utf-8"?>
<!-- Generator: Adobe Illustrator 23.0.1, SVG Export Plug-In . SVG Version: 6.00 Build 0)  -->
<svg version="1.1" id="Layer_1" xmlns="http://www.w3.org/2000/svg" xmlns:xlink="http://www.w3.org/1999/xlink" x="0px" y="0px"
	 viewBox="0 0 592.18 303.66" style="enable-background:new 0 0 592.18 303.66;" xml:space="preserve">
<style type="text/css">
	.st0{fill:#D8E1E3;}
	.st1{fill:#033F45;}
	.st2{clip-path:url(#SVGID_2_);fill:#033F45;}
	.st3{clip-path:url(#SVGID_4_);}
	.st4{clip-path:url(#SVGID_6_);fill:#E78252;}
	.st5{fill:#AABFC1;}
	.st6{fill:none;stroke:#000000;stroke-width:0.5;stroke-miterlimit:10;}
	.st7{clip-path:url(#SVGID_8_);fill:#033F45;}
	.st8{fill:none;stroke:#D8DFE1;stroke-width:0.917;stroke-miterlimit:10;}
	.st9{clip-path:url(#SVGID_10_);fill:#033F45;}
	.st10{clip-path:url(#SVGID_12_);fill:#E78252;}
	.st11{fill:#E78252;}
	.st12{clip-path:url(#SVGID_14_);fill:#E78252;}
	.st13{clip-path:url(#SVGID_16_);fill:#E78252;}
	.st14{clip-path:url(#SVGID_16_);fill:#033F45;}
	.st15{clip-path:url(#SVGID_18_);fill:#033F45;}
	.st16{clip-path:url(#SVGID_20_);fill:#033F45;}
	.st17{clip-path:url(#SVGID_22_);fill:#033F45;}
	.st18{clip-path:url(#SVGID_24_);fill:#033F45;}
	.st19{clip-path:url(#SVGID_26_);fill:#033F45;}
	.st20{clip-path:url(#SVGID_28_);fill:#033F45;}
	.st21{clip-path:url(#SVGID_30_);fill:#033F45;}
	.st22{clip-path:url(#SVGID_32_);fill:#033F45;}
	.st23{clip-path:url(#SVGID_34_);fill:#033F45;}
	.st24{clip-path:url(#SVGID_36_);fill:#033F45;}
	.st25{clip-path:url(#SVGID_38_);fill:#033F45;}
	.st26{clip-path:url(#SVGID_40_);fill:#033F45;}
	.st27{clip-path:url(#SVGID_42_);fill:#033F45;}
	.st28{clip-path:url(#SVGID_44_);fill:#AABFC1;}
	.st29{clip-path:url(#SVGID_46_);fill:#AABFC1;}
	.st30{clip-path:url(#SVGID_48_);fill:#AABFC1;}
	.st31{clip-path:url(#SVGID_50_);fill:#AABFC1;}
	.st32{clip-path:url(#SVGID_52_);fill:#AABFC1;}
	.st33{clip-path:url(#SVGID_54_);fill:#AABFC1;}
	.st34{clip-path:url(#SVGID_56_);fill:#AABFC1;}
	.st35{clip-path:url(#SVGID_56_);fill:#033F45;}
	.st36{fill:#748489;}
	.st37{fill:#425C62;}
	.st38{clip-path:url(#SVGID_58_);fill:#AABFC1;}
	.st39{clip-path:url(#SVGID_60_);fill:none;stroke:#AABFC1;}
	.st40{clip-path:url(#SVGID_60_);fill:#AABFC1;}
	.st41{fill:none;stroke:#AABFC1;stroke-width:2.153;stroke-miterlimit:10;}
	.st42{fill:none;stroke:#AABFC1;stroke-width:1.009;}
	.st43{fill:none;stroke:#000000;stroke-miterlimit:10;}
	.st44{fill:none;stroke:#AABFC1;stroke-width:0.25;stroke-miterlimit:10;}
	.st45{fill:none;stroke:#E78252;stroke-width:0.25;stroke-miterlimit:10;}
	.st46{clip-path:url(#SVGID_62_);fill:#033F45;}
	.st47{fill:none;stroke:#D8DFE1;stroke-width:4;stroke-miterlimit:10;}
	.st48{fill:none;}
</style>
<g>
	<defs>
		<rect id="SVGID_61_" x="-20.97" y="-17.15" width="639.38" height="365.36"/>
	</defs>
	<clipPath id="SVGID_2_">
		<use xlink:href="#SVGID_61_"  style="overflow:visible;"/>
	</clipPath>
	<path class="st2" d="M163.96,151.83c0.14-0.28,0.3-0.57,0.48-0.85c0.18-0.28,0.48-0.49,0.9-0.64c0.43-0.14,0.99-0.26,1.7-0.37
		c0.71-0.11,1.7-0.16,2.98-0.16c0.56,0,1.31-0.02,2.23-0.05c0.92-0.04,1.91-0.07,2.97-0.11c1.06-0.04,2.14-0.09,3.24-0.16
		c1.1-0.07,2.11-0.14,3.03-0.21c0.14,0.71,0.21,1.28,0.21,1.7c0,1.13-0.36,1.74-1.06,1.81c-2.55,0.36-4.25,0.83-5.1,1.43
		c-0.85,0.6-1.28,1.4-1.28,2.39c0,0.07,0.05,1.01,0.16,2.81c0.11,1.81,0.27,4.82,0.48,9.03c0.21,4.21,0.48,9.83,0.79,16.84
		c0.32,7.01,0.69,15.72,1.12,26.13c0.07,1.35,0.53,2.34,1.38,2.98c0.85,0.64,2.58,1.17,5.2,1.59c0.36,0.07,0.62,0.27,0.8,0.58
		c0.18,0.32,0.27,0.69,0.27,1.12c0,0.42-0.07,0.99-0.21,1.7c-2.48-0.14-4.73-0.27-6.74-0.37c-2.02-0.11-3.88-0.16-5.58-0.16
		c-0.71,0-1.59,0.02-2.65,0.05c-1.06,0.04-2.18,0.07-3.35,0.11c-1.17,0.04-2.32,0.09-3.45,0.16c-1.13,0.07-2.13,0.14-2.98,0.21
		c-0.14-0.71-0.21-1.28-0.21-1.7c0-1.13,0.36-1.7,1.06-1.7c2.83-0.57,4.76-1.13,5.79-1.7c1.03-0.57,1.54-1.52,1.54-2.87
		c0-0.21-0.05-1.52-0.16-3.93c-0.11-2.41-0.25-5.35-0.42-8.82c-0.18-3.47-0.36-7.22-0.53-11.26c-0.18-4.04-0.36-7.84-0.53-11.42
		c-0.18-3.57-0.34-6.66-0.48-9.24c-0.14-2.58-0.21-4.16-0.21-4.73l-23.27,56.2c-0.28,0.64-0.55,1.12-0.8,1.44
		c-0.25,0.32-0.58,0.48-1.01,0.48c-0.49,0-0.81-0.04-0.95-0.11l-26.03-59.71c-0.07,0.71-0.16,2.43-0.27,5.15
		c-0.11,2.73-0.25,5.97-0.42,9.72c-0.18,3.76-0.37,7.72-0.59,11.9c-0.21,4.18-0.41,8.04-0.58,11.58c-0.18,3.54-0.32,6.52-0.42,8.92
		c-0.11,2.41-0.16,3.68-0.16,3.82c0,2.2,2.41,3.72,7.22,4.57c0.71,0.07,1.06,0.64,1.06,1.7c0,0.42-0.07,0.99-0.21,1.7
		c-1.91-0.14-3.79-0.27-5.63-0.37c-1.84-0.11-3.47-0.16-4.89-0.16c-1.13,0-2.66,0.05-4.57,0.16c-1.92,0.11-3.72,0.23-5.42,0.37
		c-0.14-0.71-0.21-1.28-0.21-1.7c0-0.99,0.35-1.56,1.06-1.7c1.91-0.36,3.45-0.87,4.62-1.54c1.17-0.67,1.82-1.68,1.97-3.03
		c0-0.64,0.07-2.42,0.21-5.36c0.14-2.94,0.3-6.43,0.48-10.46c0.18-4.04,0.37-8.32,0.58-12.86c0.21-4.53,0.41-8.73,0.59-12.59
		c0.18-3.86,0.32-7.05,0.42-9.56c0.11-2.51,0.16-3.81,0.16-3.88c0-1.13-0.44-1.96-1.33-2.5c-0.89-0.53-2.57-1.01-5.05-1.43
		c-0.71-0.07-1.06-0.67-1.06-1.81c0-0.42,0.07-0.99,0.21-1.7c0.92,0.07,1.96,0.14,3.13,0.21c1.17,0.07,2.34,0.12,3.51,0.16
		c1.17,0.04,2.28,0.07,3.35,0.11s1.91,0.05,2.55,0.05c1.28,0,2.27,0.05,2.98,0.16c0.71,0.11,1.27,0.23,1.7,0.37
		c0.42,0.14,0.73,0.36,0.9,0.64c0.18,0.28,0.33,0.57,0.48,0.85l22.74,53.02L163.96,151.83z"/>
	<path class="st2" d="M212.83,211.43c0,1.42,0.49,2.39,1.49,2.92c0.99,0.53,2.83,1.08,5.52,1.65c0.71,0.14,1.06,0.71,1.06,1.7
		c0,0.43-0.07,0.99-0.21,1.7c-2.19-0.14-4.39-0.26-6.58-0.37c-2.2-0.11-4.29-0.16-6.27-0.16c-1.91,0-4.02,0.05-6.32,0.16
		c-2.3,0.11-4.48,0.23-6.53,0.37c-0.14-0.71-0.21-1.27-0.21-1.7c0-0.99,0.35-1.56,1.06-1.7c2.69-0.5,4.53-1.03,5.52-1.6
		c0.99-0.57,1.49-1.56,1.49-2.97v-54.08c0-1.42-0.5-2.43-1.49-3.03c-0.99-0.6-2.83-1.12-5.52-1.54c-0.43-0.07-0.71-0.28-0.85-0.64
		c-0.14-0.35-0.21-0.74-0.21-1.17c0-0.43,0.07-0.99,0.21-1.7c2.13,0.14,4.34,0.27,6.64,0.37c2.3,0.11,4.37,0.16,6.22,0.16
		c1.77,0,3.81-0.05,6.11-0.16c2.3-0.1,4.55-0.23,6.75-0.37c0.14,0.71,0.21,1.27,0.21,1.7c0,1.06-0.36,1.66-1.06,1.8
		c-2.69,0.43-4.53,0.94-5.52,1.54c-0.99,0.6-1.49,1.61-1.49,3.03V211.43z"/>
	<path class="st2" d="M249.91,211.22c0,1.21,0.53,2.06,1.59,2.55c1.06,0.5,2.51,0.74,4.36,0.74h11.58c2.05,0,3.82-0.27,5.31-0.8
		c1.49-0.53,2.76-1.29,3.83-2.28c1.06-0.99,2-2.21,2.82-3.67c0.81-1.45,1.54-3.1,2.18-4.94c0.21-0.57,0.64-0.85,1.27-0.85
		c0.36,0,0.73,0.09,1.12,0.27c0.39,0.18,0.8,0.37,1.22,0.58c-0.49,2.13-0.97,4.37-1.43,6.75c-0.46,2.37-0.87,5.05-1.22,8.02
		c-0.07,0.78-0.28,1.28-0.64,1.49c-0.36,0.21-0.78,0.32-1.27,0.32c-1.21,0-2.71-0.09-4.52-0.26c-1.81-0.18-3.38-0.27-4.73-0.27
		h-26.56c-1.63,0-3.68,0.05-6.16,0.16c-2.48,0.11-4.85,0.23-7.12,0.37c-0.14-0.71-0.21-1.27-0.21-1.7c0-0.99,0.36-1.56,1.06-1.7
		c2.9-0.5,4.89-1.05,5.95-1.65c1.06-0.6,1.59-1.54,1.59-2.82v-54.18c0-1.42-0.5-2.43-1.49-3.03c-0.99-0.6-2.91-1.12-5.74-1.54
		c-0.36-0.07-0.62-0.26-0.8-0.58c-0.18-0.32-0.27-0.69-0.27-1.11c0-0.49,0.07-1.1,0.21-1.81c2.41,0.14,4.78,0.27,7.12,0.37
		c2.34,0.11,4.32,0.16,5.95,0.16c2.41,0,4.96-0.05,7.65-0.16c2.69-0.1,5.1-0.23,7.22-0.37c0.14,0.71,0.21,1.27,0.21,1.7
		c0,1.21-0.39,1.84-1.17,1.91c-3.05,0.36-5.3,0.87-6.75,1.54c-1.45,0.67-2.18,1.9-2.18,3.66V211.22z"/>
	<path class="st2" d="M319.28,154.17v56.73c0,1.63,0.67,2.78,2.02,3.45c1.34,0.67,3.61,1.18,6.8,1.54c0.78,0,1.17,0.57,1.17,1.7
		c0,0.5-0.07,1.1-0.21,1.81c-2.27-0.14-4.66-0.26-7.17-0.37c-2.51-0.11-5.05-0.16-7.6-0.16c-2.48,0-5.01,0.05-7.6,0.16
		c-2.59,0.11-5.01,0.23-7.28,0.37c-0.14-0.71-0.21-1.31-0.21-1.81c0-0.99,0.36-1.56,1.06-1.7c3.19-0.42,5.49-0.95,6.91-1.59
		c1.42-0.64,2.12-1.77,2.12-3.4v-56.73h-10.94c-2.12,0-3.91,0.21-5.36,0.64c-1.45,0.43-2.71,1.06-3.77,1.91
		c-1.06,0.85-1.98,1.95-2.76,3.29c-0.78,1.34-1.6,2.91-2.44,4.68c-0.14,0.35-0.37,0.6-0.69,0.74c-0.32,0.14-0.62,0.21-0.9,0.21
		c-0.78,0-1.45-0.21-2.02-0.64c0.71-2.55,1.24-4.82,1.59-6.8c0.35-1.98,0.67-3.63,0.96-4.94c0.28-1.31,0.58-2.32,0.9-3.03
		c0.32-0.71,0.83-1.06,1.54-1.06c0.49,0,1.2,0.04,2.12,0.11c0.92,0.07,1.9,0.14,2.92,0.21c1.03,0.07,2.07,0.14,3.13,0.21
		c1.06,0.07,2.05,0.11,2.98,0.11h35.48c0.85,0,1.8-0.03,2.87-0.11c1.06-0.07,2.12-0.14,3.19-0.21c1.06-0.07,2.03-0.14,2.92-0.21
		c0.88-0.07,1.61-0.11,2.18-0.11c0.71,0,1.22,0.37,1.54,1.12c0.32,0.74,0.62,1.79,0.9,3.13c0.28,1.34,0.59,3.01,0.9,4.99
		c0.32,1.98,0.87,4.18,1.65,6.59c-0.36,0.14-0.69,0.28-1.01,0.42c-0.32,0.14-0.69,0.21-1.12,0.21c-0.28,0-0.6-0.07-0.96-0.21
		c-0.36-0.14-0.6-0.39-0.74-0.74c-0.78-1.77-1.56-3.33-2.34-4.68c-0.78-1.34-1.68-2.44-2.71-3.29c-1.03-0.85-2.27-1.49-3.72-1.91
		c-1.45-0.42-3.24-0.64-5.36-0.64H319.28z"/>
	<path class="st2" d="M388.33,215.04c3.33,0,6.37-0.64,9.14-1.91c2.76-1.27,5.14-3.04,7.12-5.31c1.98-2.27,3.52-4.96,4.62-8.07
		c1.1-3.12,1.65-6.52,1.65-10.2c0-5.1-0.53-9.83-1.59-14.18c-1.06-4.36-2.67-8.14-4.83-11.37c-2.16-3.22-4.89-5.75-8.18-7.59
		c-3.3-1.84-7.14-2.76-11.53-2.76c-2.9,0-5.68,0.55-8.34,1.65c-2.65,1.1-4.99,2.69-7.01,4.78c-2.02,2.09-3.63,4.66-4.83,7.7
		c-1.21,3.05-1.81,6.55-1.81,10.52c0,5.24,0.57,10.11,1.7,14.61c1.13,4.5,2.78,8.39,4.94,11.69c2.16,3.29,4.83,5.86,8.02,7.7
		C380.58,214.12,384.23,215.04,388.33,215.04 M351.79,184.34c0-4.89,0.89-9.49,2.66-13.81c1.77-4.32,4.18-8.11,7.22-11.37
		c3.04-3.26,6.59-5.84,10.62-7.75c4.04-1.91,8.29-2.87,12.75-2.87c6.16,0,11.54,0.97,16.15,2.92c4.61,1.95,8.41,4.57,11.42,7.86
		c3.01,3.29,5.26,7.1,6.75,11.42c1.49,4.32,2.23,8.85,2.23,13.6c0,5.59-0.92,10.61-2.76,15.03c-1.84,4.43-4.37,8.18-7.6,11.26
		c-3.22,3.08-7.01,5.44-11.37,7.07c-4.35,1.63-9.01,2.44-13.97,2.44c-5.03,0-9.63-0.85-13.81-2.55c-4.18-1.7-7.77-4.13-10.78-7.28
		c-3.01-3.15-5.35-6.92-7.01-11.31C352.62,194.61,351.79,189.72,351.79,184.34"/>
	<path class="st2" d="M486.92,201.97v-44.41c0-1.56-0.57-2.66-1.7-3.29c-1.13-0.64-3.04-1.13-5.74-1.49
		c-0.78-0.07-1.17-0.67-1.17-1.8c0-0.43,0.07-0.99,0.21-1.7c1.77,0.14,3.58,0.27,5.42,0.37c1.84,0.11,3.57,0.16,5.2,0.16
		c1.56,0,3.19-0.05,4.89-0.16c1.7-0.1,3.36-0.23,4.99-0.37c0.14,0.71,0.21,1.27,0.21,1.7c0,1.13-0.36,1.74-1.06,1.8
		c-2.41,0.36-4.06,0.85-4.94,1.49c-0.89,0.64-1.33,1.66-1.33,3.08v62.58c-0.14,0.07-0.39,0.12-0.74,0.16
		c-0.36,0.04-0.64,0.05-0.85,0.05c-0.5,0-0.96-0.12-1.38-0.37c-0.43-0.25-0.92-0.76-1.49-1.54l-43.13-56.84v50.04
		c0,1.42,0.49,2.41,1.49,2.97c0.99,0.57,2.9,1.1,5.74,1.59c0.71,0.14,1.06,0.71,1.06,1.7c0,0.43-0.07,0.99-0.21,1.7
		c-1.77-0.14-3.56-0.26-5.37-0.37c-1.8-0.11-3.49-0.16-5.05-0.16c-1.42,0-3.08,0.05-4.99,0.16c-1.91,0.11-3.65,0.23-5.2,0.37
		c-0.14-0.71-0.21-1.27-0.21-1.7c0-0.99,0.39-1.56,1.17-1.7c2.55-0.49,4.27-1.03,5.15-1.59c0.89-0.57,1.33-1.56,1.33-2.97v-54.61
		c0-1.13-0.41-2-1.22-2.6c-0.81-0.6-2.5-1.08-5.05-1.44c-0.78-0.14-1.17-0.74-1.17-1.8c0-0.36,0.04-0.67,0.1-0.96
		c0-0.21,0.04-0.46,0.11-0.74c1.42,0.14,2.76,0.25,4.04,0.32c1.13,0.07,2.34,0.12,3.61,0.16c1.28,0.04,2.41,0.05,3.4,0.05
		c2.05,0,3.42,0.07,4.09,0.21c0.67,0.14,1.22,0.5,1.65,1.06L486.92,201.97z"/>
	<path class="st2" d="M113.91,243.87c2.02,0,3.57-0.42,4.67-1.27c1.1-0.85,1.64-2.34,1.64-4.48c0-0.89-0.11-1.71-0.35-2.46
		c-0.23-0.75-0.6-1.4-1.1-1.95c-0.5-0.55-1.17-0.98-1.99-1.3c-0.82-0.32-1.82-0.47-3-0.47h-2.16v11.93H113.91z M114.81,245.64h-3.2
		v9.51c0,0.63,0.29,1.07,0.89,1.3c0.59,0.23,1.49,0.42,2.7,0.56c0.35,0.06,0.52,0.3,0.52,0.73c0,0.2-0.03,0.45-0.09,0.74
		c-0.78-0.06-1.72-0.11-2.83-0.15c-1.11-0.04-2.19-0.06-3.26-0.06c-0.75,0-1.61,0.02-2.59,0.06c-0.98,0.04-1.9,0.09-2.77,0.15
		c-0.06-0.29-0.09-0.52-0.09-0.69c0-0.4,0.16-0.63,0.47-0.69c1.09-0.17,1.86-0.38,2.31-0.63c0.45-0.25,0.67-0.66,0.67-1.23v-22
		c0-0.55-0.21-0.96-0.63-1.23c-0.42-0.27-1.23-0.48-2.44-0.63c-0.29-0.03-0.43-0.27-0.43-0.74c0-0.17,0.03-0.4,0.09-0.69
		c0.87,0.06,1.76,0.11,2.68,0.15c0.92,0.04,1.8,0.07,2.64,0.07h5.84c3.11,0,5.46,0.69,7.05,2.05c1.59,1.37,2.38,3.22,2.38,5.55
		c0,0.63-0.11,1.3-0.32,1.99c-0.22,0.69-0.55,1.37-0.99,2.03c-0.45,0.66-1.03,1.28-1.73,1.84c-0.71,0.56-1.54,1.02-2.48,1.36
		l7.22,10.03c0.55,0.75,1.15,1.27,1.81,1.56c0.66,0.29,1.28,0.5,1.86,0.65c0.26,0.06,0.39,0.26,0.39,0.6c0,0.23-0.03,0.49-0.09,0.78
		c-0.66-0.06-1.47-0.11-2.42-0.15c-0.95-0.04-1.83-0.06-2.64-0.06c-0.61,0-1.22-0.26-1.84-0.78c-0.62-0.52-1.2-1.18-1.75-1.99
		L114.81,245.64z"/>
	<path class="st2" d="M151.77,231.94v11.06h6.74c0.58,0,0.99-0.28,1.23-0.84c0.25-0.56,0.44-1.25,0.58-2.05
		c0.09-0.38,0.35-0.56,0.78-0.56c0.09,0,0.2,0.02,0.35,0.04c0.14,0.03,0.26,0.06,0.35,0.09c-0.06,0.64-0.11,1.35-0.15,2.16
		c-0.04,0.81-0.06,1.51-0.06,2.12c0,0.49,0.01,1.09,0.04,1.79c0.03,0.71,0.09,1.51,0.17,2.4c-0.23,0.06-0.45,0.09-0.65,0.09
		c-0.46,0-0.74-0.19-0.82-0.56c-0.14-0.8-0.34-1.49-0.58-2.05c-0.24-0.56-0.65-0.84-1.23-0.84h-6.74v10.2c0,0.6,0.39,1.01,1.17,1.21
		c0.78,0.2,2.06,0.3,3.85,0.3h2.37c0.84,0,1.57-0.12,2.18-0.37c0.62-0.24,1.17-0.58,1.64-0.99c0.47-0.42,0.9-0.91,1.27-1.49
		c0.37-0.58,0.74-1.21,1.08-1.9c0.09-0.2,0.3-0.3,0.65-0.3c0.14,0,0.3,0.04,0.45,0.13c0.16,0.09,0.31,0.17,0.45,0.26
		c-0.26,0.55-0.48,1.2-0.67,1.97c-0.19,0.76-0.37,1.49-0.54,2.18c-0.17,0.69-0.35,1.28-0.54,1.77c-0.19,0.49-0.43,0.73-0.71,0.73
		c-0.23,0-0.56-0.01-0.99-0.04c-0.43-0.03-0.9-0.05-1.4-0.06c-0.5-0.02-1.02-0.04-1.54-0.07c-0.52-0.03-0.97-0.04-1.34-0.04h-9.47
		c-0.83,0-1.73,0.02-2.68,0.07c-0.95,0.04-1.86,0.09-2.72,0.15c-0.06-0.29-0.09-0.52-0.09-0.69c0-0.4,0.14-0.63,0.43-0.69
		c1.09-0.2,1.88-0.42,2.36-0.65c0.47-0.23,0.71-0.63,0.71-1.21v-22c0-0.58-0.21-0.97-0.63-1.19c-0.42-0.22-1.23-0.44-2.44-0.67
		c-0.29-0.06-0.43-0.3-0.43-0.73c0-0.14,0.01-0.27,0.02-0.37c0.02-0.1,0.04-0.21,0.07-0.32c1.24,0.09,2.28,0.14,3.11,0.17
		c0.84,0.03,1.59,0.04,2.25,0.04h8.52c1.3,0,2.42-0.04,3.37-0.13c0.95-0.09,1.58-0.13,1.9-0.13c0.38,0,0.63,0.24,0.76,0.71
		c0.13,0.47,0.24,1.05,0.32,1.71c0.09,0.66,0.19,1.37,0.3,2.12c0.12,0.75,0.33,1.38,0.65,1.9c-0.23,0.17-0.49,0.26-0.78,0.26
		c-0.37,0-0.62-0.13-0.73-0.39c-0.35-0.75-0.68-1.39-0.99-1.92s-0.69-0.97-1.1-1.32c-0.42-0.35-0.92-0.61-1.51-0.78
		c-0.59-0.17-1.32-0.26-2.18-0.26H151.77z"/>
	<path class="st2" d="M198.33,246.21l-4.02-10.59l-4.19,10.59H198.33z M199.02,247.98h-9.64l-2.77,6.96
		c-0.14,0.35-0.22,0.63-0.22,0.87c0,0.61,0.88,1.04,2.64,1.3c0.2,0.03,0.34,0.11,0.41,0.24c0.07,0.13,0.11,0.28,0.11,0.45
		c0,0.18-0.03,0.41-0.09,0.69c-0.78-0.06-1.6-0.11-2.46-0.15c-0.87-0.05-1.72-0.07-2.55-0.07c-0.58,0-1.16,0.01-1.77,0.04
		c-0.6,0.03-1.24,0.09-1.9,0.17c-0.06-0.23-0.09-0.46-0.09-0.69c0-0.2,0.04-0.37,0.11-0.52c0.07-0.14,0.22-0.23,0.45-0.26
		c0.89-0.14,1.56-0.32,2.01-0.54c0.45-0.22,0.77-0.55,0.97-1.02l10.42-25.07c0.2-0.49,0.48-0.73,0.82-0.73
		c0.11,0,0.29,0.03,0.52,0.09l10.46,25.85c0.17,0.4,0.56,0.72,1.17,0.95c0.61,0.23,1.2,0.39,1.77,0.48
		c0.17,0.06,0.31,0.14,0.41,0.24c0.1,0.1,0.15,0.28,0.15,0.54c0,0.18-0.03,0.41-0.09,0.69c-0.92-0.06-1.83-0.11-2.72-0.15
		c-0.89-0.05-1.73-0.07-2.51-0.07c-0.81,0-1.73,0.02-2.77,0.07c-1.04,0.04-1.98,0.09-2.81,0.15c-0.06-0.29-0.09-0.52-0.09-0.69
		c0-0.26,0.05-0.44,0.15-0.54c0.1-0.1,0.2-0.15,0.28-0.15c0.75-0.14,1.35-0.31,1.82-0.5c0.46-0.19,0.69-0.47,0.69-0.84
		c0-0.17-0.06-0.39-0.18-0.65L199.02,247.98z"/>
	<path class="st2" d="M231.83,255.15c0,0.49,0.22,0.83,0.65,1.04c0.43,0.2,1.03,0.3,1.77,0.3h4.71c0.84,0,1.56-0.11,2.16-0.32
		c0.6-0.22,1.12-0.53,1.56-0.93c0.43-0.4,0.81-0.9,1.15-1.49c0.33-0.59,0.63-1.26,0.89-2.01c0.09-0.23,0.26-0.35,0.52-0.35
		c0.14,0,0.29,0.04,0.45,0.11c0.16,0.07,0.32,0.15,0.5,0.24c-0.2,0.87-0.4,1.78-0.58,2.75c-0.19,0.97-0.36,2.05-0.5,3.26
		c-0.03,0.32-0.12,0.52-0.26,0.61c-0.14,0.09-0.32,0.13-0.52,0.13c-0.49,0-1.1-0.04-1.84-0.11c-0.74-0.07-1.38-0.11-1.92-0.11
		h-10.81c-0.66,0-1.5,0.02-2.51,0.06c-1.01,0.04-1.97,0.09-2.89,0.15c-0.06-0.29-0.09-0.52-0.09-0.69c0-0.4,0.14-0.63,0.43-0.69
		c1.18-0.2,1.99-0.43,2.42-0.67c0.43-0.25,0.65-0.63,0.65-1.15v-22.05c0-0.58-0.2-0.99-0.61-1.23c-0.4-0.25-1.18-0.45-2.33-0.63
		c-0.14-0.03-0.25-0.11-0.32-0.24c-0.07-0.13-0.11-0.28-0.11-0.45c0-0.2,0.03-0.45,0.09-0.74c0.98,0.06,1.95,0.11,2.89,0.15
		c0.95,0.04,1.76,0.07,2.42,0.07c0.98,0,2.02-0.02,3.11-0.07c1.09-0.04,2.08-0.09,2.94-0.15c0.06,0.29,0.09,0.52,0.09,0.69
		c0,0.49-0.16,0.75-0.48,0.78c-1.24,0.14-2.15,0.35-2.75,0.63c-0.59,0.27-0.89,0.77-0.89,1.49V255.15z"/>
	<path class="st2" d="M289.23,231.94v11.06h6.74c0.58,0,0.99-0.28,1.23-0.84c0.25-0.56,0.44-1.25,0.58-2.05
		c0.09-0.38,0.35-0.56,0.78-0.56c0.09,0,0.2,0.02,0.35,0.04c0.14,0.03,0.26,0.06,0.35,0.09c-0.06,0.64-0.11,1.35-0.15,2.16
		s-0.06,1.51-0.06,2.12c0,0.49,0.01,1.09,0.04,1.79c0.03,0.71,0.08,1.51,0.17,2.4c-0.23,0.06-0.45,0.09-0.65,0.09
		c-0.46,0-0.74-0.19-0.82-0.56c-0.14-0.8-0.34-1.49-0.58-2.05c-0.24-0.56-0.65-0.84-1.23-0.84h-6.74v10.2c0,0.6,0.39,1.01,1.17,1.21
		c0.78,0.2,2.06,0.3,3.85,0.3h2.37c0.84,0,1.57-0.12,2.18-0.37c0.62-0.24,1.17-0.58,1.64-0.99c0.47-0.42,0.9-0.91,1.27-1.49
		c0.37-0.58,0.74-1.21,1.08-1.9c0.09-0.2,0.3-0.3,0.65-0.3c0.14,0,0.3,0.04,0.45,0.13c0.16,0.09,0.31,0.17,0.45,0.26
		c-0.26,0.55-0.48,1.2-0.67,1.97c-0.19,0.76-0.37,1.49-0.54,2.18c-0.17,0.69-0.35,1.28-0.54,1.77c-0.19,0.49-0.43,0.73-0.71,0.73
		c-0.23,0-0.56-0.01-0.99-0.04c-0.43-0.03-0.9-0.05-1.4-0.06c-0.5-0.02-1.02-0.04-1.54-0.07c-0.52-0.03-0.97-0.04-1.34-0.04h-9.47
		c-0.83,0-1.73,0.02-2.68,0.07c-0.95,0.04-1.86,0.09-2.72,0.15c-0.06-0.29-0.09-0.52-0.09-0.69c0-0.4,0.14-0.63,0.43-0.69
		c1.09-0.2,1.88-0.42,2.36-0.65c0.47-0.23,0.71-0.63,0.71-1.21v-22c0-0.58-0.21-0.97-0.63-1.19c-0.42-0.22-1.23-0.44-2.44-0.67
		c-0.29-0.06-0.43-0.3-0.43-0.73c0-0.14,0.01-0.27,0.02-0.37s0.04-0.21,0.07-0.32c1.24,0.09,2.28,0.14,3.11,0.17
		c0.84,0.03,1.59,0.04,2.25,0.04h8.52c1.3,0,2.42-0.04,3.37-0.13c0.95-0.09,1.59-0.13,1.9-0.13c0.38,0,0.63,0.24,0.76,0.71
		c0.13,0.47,0.24,1.05,0.32,1.71c0.09,0.66,0.19,1.37,0.3,2.12c0.12,0.75,0.33,1.38,0.65,1.9c-0.23,0.17-0.49,0.26-0.78,0.26
		c-0.38,0-0.62-0.13-0.73-0.39c-0.35-0.75-0.68-1.39-1-1.92c-0.31-0.53-0.68-0.97-1.1-1.32c-0.42-0.35-0.92-0.61-1.51-0.78
		s-1.32-0.26-2.18-0.26H289.23z"/>
	<path class="st2" d="M338.38,236.95c-0.29,0.06-0.5,0.09-0.65,0.09c-0.38,0-0.65-0.07-0.82-0.22c-0.17-0.14-0.3-0.3-0.39-0.47
		c-0.75-1.64-1.64-2.84-2.68-3.59c-1.04-0.75-2.45-1.12-4.23-1.12c-0.69,0-1.35,0.09-1.97,0.28c-0.62,0.19-1.16,0.46-1.62,0.82
		c-0.46,0.36-0.83,0.8-1.1,1.32c-0.27,0.52-0.41,1.1-0.41,1.73c0,1.35,0.57,2.46,1.71,3.33c1.14,0.86,2.82,1.74,5.04,2.64
		c2.77,1.1,4.81,2.31,6.11,3.65c1.31,1.34,1.97,2.99,1.97,4.95c0,1.18-0.18,2.29-0.54,3.31c-0.36,1.02-0.92,1.92-1.69,2.68
		c-0.76,0.76-1.75,1.36-2.96,1.79c-1.21,0.43-2.66,0.65-4.36,0.65c-1.79,0-3.41-0.19-4.86-0.56c-1.46-0.37-2.69-0.86-3.7-1.47
		c-0.09-1.21-0.22-2.38-0.39-3.5s-0.38-2.25-0.6-3.37c0.2-0.09,0.44-0.13,0.73-0.13c0.35,0,0.61,0.08,0.8,0.24
		c0.19,0.16,0.35,0.41,0.5,0.76c0.72,2.07,1.65,3.6,2.79,4.58c1.14,0.98,2.73,1.47,4.78,1.47c0.92,0,1.73-0.13,2.42-0.39
		c0.69-0.26,1.27-0.62,1.73-1.08c0.46-0.46,0.81-0.98,1.04-1.56c0.23-0.58,0.35-1.2,0.35-1.86c0-1.5-0.51-2.68-1.53-3.54
		c-1.03-0.87-2.49-1.64-4.39-2.33c-1.24-0.46-2.36-0.94-3.37-1.45c-1.01-0.5-1.87-1.09-2.59-1.75c-0.72-0.66-1.27-1.43-1.66-2.31
		c-0.39-0.88-0.58-1.92-0.58-3.13c0-1.07,0.2-2.07,0.58-3c0.39-0.94,0.95-1.75,1.69-2.44c0.73-0.69,1.62-1.24,2.66-1.64
		c1.04-0.4,2.2-0.6,3.5-0.6c1.35,0,2.65,0.13,3.89,0.39c1.24,0.26,2.64,0.69,4.19,1.3c0.06,0.87,0.13,1.79,0.24,2.79
		C338.07,235.16,338.21,236.09,338.38,236.95"/>
	<path class="st2" d="M369.51,231.94v23.08c0,0.66,0.27,1.13,0.82,1.4c0.55,0.28,1.47,0.48,2.77,0.63c0.32,0,0.47,0.23,0.47,0.69
		c0,0.2-0.03,0.45-0.09,0.73c-0.92-0.06-1.9-0.11-2.92-0.15c-1.03-0.04-2.06-0.07-3.09-0.07c-1.01,0-2.04,0.02-3.09,0.07
		c-1.05,0.04-2.04,0.09-2.96,0.15c-0.06-0.29-0.09-0.53-0.09-0.73c0-0.4,0.14-0.63,0.43-0.69c1.3-0.17,2.23-0.39,2.81-0.65
		c0.58-0.26,0.86-0.72,0.86-1.38v-23.08h-4.45c-0.87,0-1.59,0.09-2.18,0.26c-0.59,0.17-1.1,0.43-1.54,0.78
		c-0.43,0.35-0.81,0.79-1.12,1.34c-0.31,0.55-0.65,1.18-0.99,1.9c-0.06,0.14-0.15,0.25-0.28,0.3c-0.13,0.06-0.25,0.09-0.37,0.09
		c-0.32,0-0.59-0.09-0.82-0.26c0.29-1.04,0.5-1.96,0.65-2.77c0.14-0.81,0.27-1.48,0.39-2.01c0.12-0.53,0.24-0.94,0.37-1.23
		c0.13-0.29,0.34-0.43,0.63-0.43c0.2,0,0.49,0.02,0.87,0.04c0.38,0.03,0.77,0.06,1.19,0.09c0.42,0.03,0.84,0.06,1.28,0.09
		c0.43,0.03,0.83,0.04,1.21,0.04h14.44c0.35,0,0.74-0.01,1.17-0.04c0.43-0.03,0.87-0.06,1.3-0.09c0.43-0.03,0.83-0.06,1.19-0.09
		s0.65-0.04,0.89-0.04c0.29,0,0.5,0.15,0.63,0.45c0.13,0.3,0.25,0.73,0.37,1.27c0.11,0.55,0.24,1.23,0.37,2.03
		c0.13,0.81,0.35,1.7,0.67,2.68c-0.14,0.06-0.28,0.11-0.41,0.17c-0.13,0.06-0.28,0.09-0.45,0.09c-0.11,0-0.24-0.03-0.39-0.09
		c-0.14-0.06-0.25-0.16-0.3-0.3c-0.32-0.72-0.63-1.35-0.95-1.9c-0.32-0.55-0.69-0.99-1.1-1.34c-0.42-0.35-0.92-0.61-1.51-0.78
		s-1.32-0.26-2.18-0.26H369.51z"/>
	<path class="st2" d="M407.93,246.21l-4.02-10.59l-4.19,10.59H407.93z M408.63,247.98h-9.64l-2.77,6.96
		c-0.14,0.35-0.22,0.63-0.22,0.87c0,0.61,0.88,1.04,2.64,1.3c0.2,0.03,0.34,0.11,0.41,0.24c0.07,0.13,0.11,0.28,0.11,0.45
		c0,0.18-0.03,0.41-0.09,0.69c-0.78-0.06-1.6-0.11-2.46-0.15c-0.87-0.05-1.72-0.07-2.55-0.07c-0.58,0-1.16,0.01-1.77,0.04
		c-0.6,0.03-1.24,0.09-1.9,0.17c-0.06-0.23-0.09-0.46-0.09-0.69c0-0.2,0.04-0.37,0.11-0.52c0.07-0.14,0.22-0.23,0.45-0.26
		c0.89-0.14,1.56-0.32,2.01-0.54c0.45-0.22,0.77-0.55,0.97-1.02l10.42-25.07c0.2-0.49,0.48-0.73,0.82-0.73
		c0.11,0,0.29,0.03,0.52,0.09l10.46,25.85c0.17,0.4,0.56,0.72,1.17,0.95c0.6,0.23,1.2,0.39,1.77,0.48c0.17,0.06,0.31,0.14,0.41,0.24
		c0.1,0.1,0.15,0.28,0.15,0.54c0,0.18-0.03,0.41-0.09,0.69c-0.92-0.06-1.83-0.11-2.72-0.15c-0.89-0.05-1.73-0.07-2.51-0.07
		c-0.81,0-1.73,0.02-2.77,0.07c-1.04,0.04-1.98,0.09-2.81,0.15c-0.06-0.29-0.09-0.52-0.09-0.69c0-0.26,0.05-0.44,0.15-0.54
		c0.1-0.1,0.19-0.15,0.28-0.15c0.75-0.14,1.35-0.31,1.81-0.5c0.46-0.19,0.69-0.47,0.69-0.84c0-0.17-0.06-0.39-0.18-0.65
		L408.63,247.98z"/>
	<path class="st2" d="M444.68,231.94v23.08c0,0.66,0.27,1.13,0.82,1.4c0.55,0.28,1.47,0.48,2.77,0.63c0.32,0,0.47,0.23,0.47,0.69
		c0,0.2-0.03,0.45-0.09,0.73c-0.92-0.06-1.9-0.11-2.92-0.15c-1.02-0.04-2.05-0.07-3.09-0.07c-1.01,0-2.04,0.02-3.09,0.07
		c-1.05,0.04-2.04,0.09-2.96,0.15c-0.06-0.29-0.09-0.53-0.09-0.73c0-0.4,0.14-0.63,0.43-0.69c1.3-0.17,2.23-0.39,2.81-0.65
		c0.58-0.26,0.86-0.72,0.86-1.38v-23.08h-4.45c-0.87,0-1.59,0.09-2.18,0.26c-0.59,0.17-1.1,0.43-1.54,0.78
		c-0.43,0.35-0.81,0.79-1.12,1.34c-0.32,0.55-0.65,1.18-0.99,1.9c-0.06,0.14-0.15,0.25-0.28,0.3c-0.13,0.06-0.25,0.09-0.37,0.09
		c-0.32,0-0.59-0.09-0.82-0.26c0.29-1.04,0.5-1.96,0.65-2.77c0.14-0.81,0.27-1.48,0.39-2.01s0.24-0.94,0.37-1.23
		c0.13-0.29,0.34-0.43,0.63-0.43c0.2,0,0.49,0.02,0.87,0.04c0.37,0.03,0.77,0.06,1.19,0.09c0.42,0.03,0.84,0.06,1.28,0.09
		c0.43,0.03,0.83,0.04,1.21,0.04h14.44c0.35,0,0.74-0.01,1.17-0.04c0.43-0.03,0.87-0.06,1.3-0.09c0.43-0.03,0.83-0.06,1.19-0.09
		s0.65-0.04,0.89-0.04c0.29,0,0.5,0.15,0.63,0.45c0.13,0.3,0.25,0.73,0.37,1.27c0.11,0.55,0.24,1.23,0.37,2.03
		c0.13,0.81,0.35,1.7,0.67,2.68c-0.14,0.06-0.28,0.11-0.41,0.17c-0.13,0.06-0.28,0.09-0.45,0.09c-0.11,0-0.24-0.03-0.39-0.09
		c-0.14-0.06-0.25-0.16-0.3-0.3c-0.32-0.72-0.63-1.35-0.95-1.9c-0.32-0.55-0.69-0.99-1.1-1.34c-0.42-0.35-0.92-0.61-1.51-0.78
		s-1.32-0.26-2.18-0.26H444.68z"/>
	<path class="st2" d="M478.26,231.94v11.06h6.74c0.58,0,0.99-0.28,1.23-0.84c0.25-0.56,0.44-1.25,0.58-2.05
		c0.09-0.38,0.35-0.56,0.78-0.56c0.09,0,0.2,0.02,0.35,0.04c0.14,0.03,0.26,0.06,0.35,0.09c-0.06,0.64-0.11,1.35-0.15,2.16
		s-0.06,1.51-0.06,2.12c0,0.49,0.01,1.09,0.04,1.79c0.03,0.71,0.08,1.51,0.17,2.4c-0.23,0.06-0.45,0.09-0.65,0.09
		c-0.46,0-0.74-0.19-0.82-0.56c-0.14-0.8-0.34-1.49-0.58-2.05c-0.24-0.56-0.65-0.84-1.23-0.84h-6.74v10.2c0,0.6,0.39,1.01,1.17,1.21
		c0.78,0.2,2.06,0.3,3.85,0.3h2.37c0.84,0,1.57-0.12,2.18-0.37c0.62-0.24,1.17-0.58,1.64-0.99c0.47-0.42,0.9-0.91,1.27-1.49
		c0.37-0.58,0.74-1.21,1.08-1.9c0.09-0.2,0.3-0.3,0.65-0.3c0.14,0,0.3,0.04,0.45,0.13c0.16,0.09,0.31,0.17,0.45,0.26
		c-0.26,0.55-0.48,1.2-0.67,1.97c-0.19,0.76-0.37,1.49-0.54,2.18c-0.17,0.69-0.35,1.28-0.54,1.77s-0.43,0.73-0.71,0.73
		c-0.23,0-0.56-0.01-0.99-0.04c-0.43-0.03-0.9-0.05-1.4-0.06c-0.5-0.02-1.02-0.04-1.54-0.07c-0.52-0.03-0.97-0.04-1.34-0.04h-9.47
		c-0.83,0-1.73,0.02-2.68,0.07c-0.95,0.04-1.86,0.09-2.72,0.15c-0.06-0.29-0.09-0.52-0.09-0.69c0-0.4,0.14-0.63,0.43-0.69
		c1.09-0.2,1.88-0.42,2.36-0.65c0.47-0.23,0.71-0.63,0.71-1.21v-22c0-0.58-0.21-0.97-0.63-1.19c-0.42-0.22-1.23-0.44-2.44-0.67
		c-0.29-0.06-0.43-0.3-0.43-0.73c0-0.14,0.01-0.27,0.02-0.37c0.02-0.1,0.04-0.21,0.07-0.32c1.24,0.09,2.28,0.14,3.11,0.17
		c0.84,0.03,1.59,0.04,2.25,0.04h8.52c1.3,0,2.42-0.04,3.37-0.13c0.95-0.09,1.59-0.13,1.9-0.13c0.38,0,0.63,0.24,0.76,0.71
		c0.13,0.47,0.24,1.05,0.32,1.71c0.09,0.66,0.19,1.37,0.3,2.12c0.12,0.75,0.33,1.38,0.65,1.9c-0.23,0.17-0.49,0.26-0.78,0.26
		c-0.37,0-0.62-0.13-0.73-0.39c-0.35-0.75-0.68-1.39-0.99-1.92c-0.32-0.53-0.69-0.97-1.1-1.32c-0.42-0.35-0.92-0.61-1.51-0.78
		s-1.32-0.26-2.18-0.26H478.26z"/>
</g>
<polyline class="st47" points="34.32,157.67 298.22,41.39 563.13,157.67 "/>
<rect x="-20.97" y="-17.15" class="st48" width="639.38" height="365.36"/>
</svg>
