<svg id="Layer_1" data-name="Layer 1" xmlns="http://www.w3.org/2000/svg" viewBox="0 0 608.24 161.32"><defs><style>.cls-1{fill:#003976;}.cls-2{fill:#ebab21;}</style></defs><title>flashfast</title><path class="cls-1" d="M82.2,62.2l-2.09,12H53.16l-2.9,16.19,4.26.45-2,11.67H27l2-11.67,4.35-.45,7.6-43-4.16-.45,2.08-11.67H89L86,52.16H75.59V47.91H46.37l10.77,3.44L55.24,62.2Z"/><path class="cls-1" d="M135.47,84.1l-3.16,18.36H84.81l2-11.67,4.26-.45,7.59-43-4.07-.45,2.08-11.67H122l-2.08,11.67-2.17.27-13.39,1.18,10.59,2.71-6.79,38.35h15.2l1.81-5.33Z"/><path class="cls-1" d="M206,102.46h-26l2-11.67,3.71-.36-.45-4.61H166.22l-2.08,4.61,3.53.36-2,11.67h-26.6l2-11.67,4.44-.45L166,47.46l-4.34-.54,2.08-11.67h33.74l6.15,55.09,4.43.45ZM183.41,55.78a62.83,62.83,0,0,1-.18-8.23H170.47l9.95,3.89c-.54,1.45-1.17,3-1.81,4.34l-7.87,17.73h14.48Z"/><path class="cls-1" d="M324.15,35.25l-2.08,11.67,4.16.45-2.44,13.75H298.55l1.81-9.95-10.67-2.71,15.65-1.54,2.08-11.67H281.91l-2.08,11.67,4.16.45-7.6,43-4.34.45-2,11.67h25.51l2-11.67-4.16-.45,2.8-16h25.24l-2.81,16-4.34.45-2,11.67h25.51l.79-4.65h-5a1,1,0,0,1-1.05-1,1,1,0,0,1,1.05-1H339l.84-4.93-4.16-.45,7-39.17-10.76-2.71,13.48-1.27,2.26-.27,2.08-11.67Z"/><path class="cls-1" d="M232.61,72.07C225,68.36,220,63.92,220,54.24c0-16.91,14.56-20.53,30.12-20.53a101.4,101.4,0,0,1,21.26,2.35l-2.72,15.38H258.3V46.28c-3.07-.18-6.6-.27-9.5-.27a37,37,0,0,0-5.69.36l-15.56,1.36,9.68,2.9A5.4,5.4,0,0,0,237,52c0,3.35,1.81,4.89,6.52,7.24l8.68,4.16c8.69,4.16,13.66,8.05,13.66,17.37C265.9,97,253.51,104,236.41,104c-11.22,0-18.72-1.09-22.89-2.17l2.81-15.92h10.13v5.42c3.44.18,6.79.18,10,.18,6.61,0,11.85-1.9,11.85-7.87,0-3.43-1.9-4.88-6.78-7.23Z"/><rect class="cls-1" x="338.36" y="58.37" width="5.41" height="3.44"/><path class="cls-2" d="M333.62,97.81a1,1,0,1,1,0-2.09h11.1l.84-4.92-4.25-.46,1.34-7.53a1,1,0,0,1,.36-2l1.19-6.65h27l2.09-12h-27l1.22-7h-1.79a1,1,0,1,1,0-2.09h2.16l.31-1.8-10.77-3.44h29.23v4.25h10.41l3-16.92H315.34a2.09,2.09,0,0,0-1.67,3.35,1.05,1.05,0,0,1,.62-.21h19.83a1,1,0,1,1,0,2.09H329l-1.15,6.44,4.17.45L330.45,56h-4.12a2.1,2.1,0,0,0-2.1,2.09,2.13,2.13,0,0,0,.43,1.26,1,1,0,0,1,.62-.21h16.31a1,1,0,1,1,0,2.09H329.53l-.59,3.36H311.49A2.09,2.09,0,0,0,309.82,68a1,1,0,0,1,.62-.2h25.5a1,1,0,0,1,0,2.09H328L325.32,85h-8.49a2.1,2.1,0,0,0-2.09,2.09,2.06,2.06,0,0,0,.43,1.26,1,1,0,0,1,.62-.21h13.34a1,1,0,1,1,0,2.09H324.4v.07L320,90.8l-1.27,7.43H305.92a2.1,2.1,0,0,0-2.09,2.1,2,2,0,0,0,.43,1.25,1,1,0,0,1,.62-.21H324a1,1,0,0,1,1,1v0h18.53l.79-4.66Z"/><path class="cls-2" d="M432.58,78H416.72a1,1,0,0,1,0-2.1h15.63L428.2,38.75h-4.57a1,1,0,0,1,0-2.1H428l-.16-1.41H394.06l-1.2,6.7h-7.18A2.09,2.09,0,0,0,384,45.29a1.05,1.05,0,0,1,.62-.21H401a1.05,1.05,0,0,1,0,2.1h-6.86l2.23.28-4,8.46H380.11A2.1,2.1,0,0,0,378,58a2,2,0,0,0,.43,1.25,1,1,0,0,1,.62-.21h16.31a1,1,0,1,1,0,2.1h-5.58l-7.74,16.23h-2.17a2.1,2.1,0,0,0-2.1,2.1,2,2,0,0,0,.43,1.25,1,1,0,0,1,.62-.21h9.68a1,1,0,1,1,0,2.1h-9l-.05.1H368.79a2.1,2.1,0,0,0-2.09,2.1,2,2,0,0,0,.43,1.25,1,1,0,0,1,.62-.21h16.31a1,1,0,1,1,0,2.1H377l-1.13,2.37-4.43.46-1.11,6.49H361.1a2.1,2.1,0,0,0-2.1,2.1,2,2,0,0,0,.43,1.25,1,1,0,0,1,.62-.21h16.31a1,1,0,0,1,.32,2h19.37l1.17-6.86H385.61a1,1,0,0,1,0-2.09h12L398,90.8l-3.53-.37,2.08-4.61h19.09l.46,4.61-3.71.37-2,11.67h26l2-11.67L434,90.34Zm-31.46-4.51,4.2-9.47h-3.06a1.05,1.05,0,0,1,0-2.1h4L409,55.78c.63-1.36,1.26-2.9,1.81-4.34l-10-3.89H413.6a62.83,62.83,0,0,0,.18,8.23l1,10.14h-4.27a2.1,2.1,0,0,0-2.09,2.1,2,2,0,0,0,.43,1.25,1,1,0,0,1,.62-.21h8.66a1.05,1.05,0,1,1,0,2.1h-2.82l.24,2.35Z"/><path class="cls-2" d="M462.8,36.18H450.17a2.08,2.08,0,0,0-1.67,3.35,1,1,0,0,1,.62-.21h16.31a1.05,1.05,0,1,1,0,2.1H454.68c-2.72,3-4.34,7.19-4.34,12.82a23.45,23.45,0,0,0,.3,3.78H441a2.1,2.1,0,0,0-2.1,2.09,2.06,2.06,0,0,0,.43,1.26,1,1,0,0,1,.62-.21h22.19a1,1,0,1,1,0,2.09h-9.71a15.2,15.2,0,0,0,2.7,3.56h-5.06a2.09,2.09,0,0,0-1.67,3.35A1.06,1.06,0,0,1,449,70h16.31a1.05,1.05,0,0,1,0,2.1H463l0,0L472,76.41c4.89,2.35,6.79,3.8,6.79,7.24a8.55,8.55,0,0,1-.23,2h-13A2.09,2.09,0,0,0,463.89,89a1.05,1.05,0,0,1,.63-.2h16.31a1,1,0,0,1,0,2.09h-8.28a23,23,0,0,1-5.65.62c-3.26,0-6.61,0-10-.18V85.91H446.72l-1.8,10.2h-.33a2.09,2.09,0,0,0-1.67,3.35,1.05,1.05,0,0,1,.62-.21h5.87a1,1,0,0,1,0,2.1H444l-.09.49c4.17,1.08,11.68,2.17,22.9,2.17,10,0,18.4-2.39,23.64-7.64h-11.9a1,1,0,1,1,0-2.09h13.72c2.59-3.49,4-8,4-13.53,0-5.84-1.95-9.54-5.55-12.52H487.3a1.05,1.05,0,0,1,0-2.1h.48a56.3,56.3,0,0,0-5.14-2.75L474,59.22c-4.71-2.35-6.52-3.89-6.52-7.24a5.53,5.53,0,0,1,.18-1.36l-9.68-2.89,15.56-1.36a37.2,37.2,0,0,1,5.7-.36c2.9,0,6.43.09,9.5.27v.95h-7.9a2.09,2.09,0,0,0-1.67,3.35,1.05,1.05,0,0,1,.62-.21h16.31a1,1,0,0,1,1.05,1.05v0H499l2.71-15.39a101.4,101.4,0,0,0-21.26-2.35C474.1,33.7,467.91,34.31,462.8,36.18Z"/><path class="cls-2" d="M510.33,35.24l-1,5.5H506a2.09,2.09,0,0,0-2.09,2.09,2.12,2.12,0,0,0,.42,1.26,1.05,1.05,0,0,1,.62-.21h12.86a1,1,0,0,1,0,2.09h-9.41l-1.17,6.55h9.87l1.72-4.61h8.77L524.94,63H507a2.1,2.1,0,0,0-2.09,2.1,2,2,0,0,0,.43,1.25,1,1,0,0,1,.62-.21h22.19a1,1,0,0,1,0,2.1H524l-.35,2H518a2.09,2.09,0,0,0-1.67,3.35,1.05,1.05,0,0,1,.62-.21h11.76a1,1,0,0,1,0,2.1h-5.93l-1.35,7.64H509.81a2.1,2.1,0,0,0-2.09,2.1,2,2,0,0,0,.43,1.25,1,1,0,0,1,.62-.21h17.7a1,1,0,0,1,0,2.1h-6l-.36,2-4.43.46-2,11.58h25.51l2-11.58L537,90.43l1.7-9.56H537.2a1,1,0,1,1,0-2.09h1.89l3.56-20.11h-7.34a1,1,0,0,1,0-2.09H543l1-5.51-10-3.16h19.27v4.61h9.86l3.08-17.28Z"/></svg>