<?xml version="1.0" encoding="utf-8"?>
<!-- Generator: Adobe Illustrator 23.0.1, SVG Export Plug-In . SVG Version: 6.00 Build 0)  -->
<svg version="1.1" xmlns="http://www.w3.org/2000/svg" xmlns:xlink="http://www.w3.org/1999/xlink" x="0px" y="0px"
	 viewBox="0 0 639.38 365.36" style="enable-background:new 0 0 639.38 365.36;" xml:space="preserve">
<style type="text/css">
	.st0{fill:#8A3545;}
	.st1{fill:#472747;}
	.st2{fill:#FBEFDA;}
	.st3{fill:#16162D;}
	.st4{fill:#EDB48B;}
	.st5{fill:#F9E7C6;}
	.st6{opacity:0.7;}
	.st7{opacity:0.15;fill:#C4943A;stroke:#EBA87B;stroke-width:0.576;stroke-miterlimit:10;}
	.st8{opacity:0.15;fill:none;stroke:#EBA87B;stroke-width:0.576;stroke-miterlimit:10;}
	.st9{opacity:0.15;fill:none;stroke:#EA9861;stroke-width:0.576;stroke-miterlimit:10;}
	.st10{opacity:0.15;fill:#C4943A;stroke:#EA9861;stroke-width:0.576;stroke-miterlimit:10;}
	.st11{fill:none;stroke:#8C3D49;stroke-miterlimit:10;}
	.st12{fill:none;stroke:#16162D;stroke-miterlimit:10;}
	.st13{fill:#AF7779;}
	.st14{fill:none;stroke:#EDB48B;stroke-width:0.504;stroke-miterlimit:10;}
	.st15{fill:none;stroke:#EDB48B;stroke-width:1.944;stroke-miterlimit:10;}
	.st16{fill:#6D5470;}
	.st17{fill:#474B77;}
	.st18{fill:#FBEFDA;stroke:#000000;stroke-width:0.576;stroke-miterlimit:10;}
	.st19{fill:#8A3545;stroke:#000000;stroke-width:0.576;stroke-miterlimit:10;}
	.st20{fill:none;stroke:#EDB48B;stroke-width:0.936;stroke-miterlimit:10;}
	.st21{fill:none;}
	.st22{opacity:0.95;}
	.st23{fill:none;stroke:#8C3D49;stroke-width:2.232;stroke-miterlimit:10;}
	.st24{fill:none;stroke:#FBEFDA;stroke-width:2.232;stroke-miterlimit:10;}
	.st25{fill:none;stroke:#EDB48B;stroke-width:6.8478;stroke-miterlimit:10;}
</style>
<g id="Layer_1">
	<g>
		<path class="st4" d="M138.43,106.18l56.02,125.62l56.02-125.62h14.3v143.03h-13.11v-97.26c0-11.2,0.24-23.12,0.24-23.36
			c-0.24,0.47-5.01,13.11-9.3,22.88l-43.38,97.74h-10.49l-43.38-97.74c-4.53-10.25-8.82-21.93-9.29-22.88
			c0,0.24,0.24,11.92,0.24,23.36v97.26h-12.63V106.18H138.43z"/>
	</g>
	<g>
		<path class="st4" d="M442.55,101.31c41.95,0,73.18,31.47,73.18,75.09c0,43.86-31.23,75.09-73.18,75.09
			c-42.19,0-73.18-31.22-73.18-75.09C369.37,132.78,400.36,101.31,442.55,101.31z M442.55,113.47c-34.56,0-59.59,25.27-59.59,62.93
			s25.03,62.93,59.59,62.93c34.09,0,59.59-25.27,59.59-62.93S476.64,113.47,442.55,113.47z"/>
	</g>
	<line class="st25" x1="322.36" y1="66.16" x2="322.36" y2="290.89"/>
</g>
<g id="Layer_2">
</g>
<g id="Layer_3">
</g>
</svg>
